Patient4_TMGait_0pt4_03_right_29_GRF.mot
version=1
nRows=71
nColumns=19
inDegrees=no
endheader
time	F1x	F1y	F1z	M1x	M1y	M1z	F2x	F2y	F2z	M2x	M2y	M2z	EC1x	EC1y	EC1z	EC2x	EC2y	EC2z
37.52	11.2152	821.3555	63.4116	-242.5978	-68.5248	907.2361	7.0141	-18.7886	2.8781	-4.0981	-4.1627	-24.7955	-0.0592	0.0182	-0.0073	-0.0462	0.0165	0.9585
37.5338	5.2868	808.9463	66.6052	-238.8852	-72.3623	890.2984	4.6058	-11.9067	1.9683	-2.4385	-2.7697	-15.8427	-0.0592	0.0182	-0.0073	-0.0462	0.0165	0.9585
37.5476	0.85547	794.5763	68.5928	-234.5806	-74.582	870.92	2.607	-6.0232	1.1649	-1.0127	-1.5763	-8.2178	-0.0592	0.0182	-0.0073	-0.0462	0.0165	0.9585
37.5614	-1.7603	779.0815	69.2751	-229.9364	-75.0382	850.1548	1.1032	-1.4934	0.52513	0.091095	-0.64997	-2.3645	-0.0592	0.0182	-0.0073	-0.0462	0.0165	0.9585
37.5751	-2.633	763.5	68.8224	-225.269	-73.9373	829.2044	0.075925	1.6828	0.05408	0.87197	0.011514	1.7451	-0.0592	0.0182	-0.0073	-0.0462	0.0165	0.9585
37.5889	-2.0056	748.9394	67.5093	-220.9189	-71.6241	809.2764	-0.54509	3.6744	-0.2744	1.369	0.44944	4.3373	-0.0592	0.0182	-0.0073	-0.0462	0.0165	0.9585
37.6027	-0.19283	736.413	65.6838	-217.1925	-68.5289	791.4591	-0.881	4.7402	-0.48698	1.6392	0.7189	5.7465	-0.0592	0.0182	-0.0073	-0.0462	0.0165	0.9585
37.6165	2.5076	726.6854	63.6332	-214.3186	-65.0194	776.5514	-1.0122	5.1194	-0.61503	1.7322	0.87279	6.2706	-0.0592	0.0182	-0.0073	-0.0462	0.0165	0.9585
37.6303	5.817	720.1765	61.6401	-212.4126	-61.4425	764.9969	-1.0274	5.0074	-0.68144	1.6846	0.95526	6.1644	-0.0592	0.0182	-0.0073	-0.0462	0.0165	0.9585
37.6441	9.519	716.934	59.8806	-211.4715	-58.0225	756.8474	-0.99007	4.524	-0.70846	1.5137	0.99903	5.5865	-0.0592	0.0182	-0.0073	-0.0462	0.0165	0.9585
37.6579	13.4437	716.6749	58.5021	-211.3871	-54.942	751.8266	-0.92818	3.7245	-0.71749	1.2216	1.0257	4.6092	-0.0592	0.0182	-0.0073	-0.0462	0.0165	0.9585
37.6716	17.4495	718.8864	57.5543	-211.985	-52.286	749.434	-0.8713	2.6416	-0.71901	0.80581	1.0482	3.2874	-0.0592	0.0182	-0.0073	-0.0462	0.0165	0.9585
37.6854	21.4083	722.8986	57.0662	-213.0468	-50.1205	749.0289	-0.80774	1.2696	-0.71484	0.26086	1.0579	1.6107	-0.0592	0.0182	-0.0073	-0.0462	0.0165	0.9585
37.6992	25.216	727.9799	57.0167	-214.3386	-48.4578	749.9178	-0.72893	-0.35347	-0.69306	-0.3976	1.0275	-0.37191	-0.0592	0.0182	-0.0073	-0.0462	0.0165	0.9585
37.713	28.7978	733.4235	57.3718	-215.6383	-47.2925	751.4324	-0.59382	-2.1098	-0.62925	-1.1169	0.90686	-2.5207	-0.0592	0.0182	-0.0073	-0.0462	0.0165	0.9585
37.7268	32.0983	738.6108	58.0962	-216.7525	-46.6086	752.986	-0.34226	-3.7515	-0.47904	-1.7878	0.62044	-4.5385	-0.0592	0.0182	-0.0073	-0.0462	0.0165	0.9585
37.7406	35.1169	743.0766	59.1671	-217.5343	-46.3887	754.1342	0.071348	-4.8143	-0.1868	-2.2132	0.084378	-5.8559	-0.0592	0.0182	-0.0073	-0.0462	0.0165	0.9585
37.7544	37.8604	746.5531	60.5621	-217.9	-46.6076	754.6241	0.72284	-4.5769	0.30798	-2.0867	-0.79483	-5.5969	-0.0592	0.0182	-0.0073	-0.0462	0.0165	0.9585
37.7681	40.3315	748.9232	62.2419	-217.8174	-47.2222	754.3514	1.6526	-1.9992	1.0621	-0.97372	-2.0934	-2.4916	-0.0592	0.0182	-0.0073	-0.0462	0.0165	0.9585
37.7819	42.5112	750.1244	64.1379	-217.2786	-48.1651	753.2544	2.8606	4.2252	2.1157	1.6712	-3.848	5.0528	-0.0592	0.0182	-0.0073	-0.0462	0.0165	0.9585
37.7957	44.3245	750.0066	66.1473	-216.2601	-49.3522	751.1942	4.2787	15.5843	3.4638	6.4632	-6.0086	18.8509	-0.0592	0.0182	-0.0073	-0.0462	0.0165	0.9585
37.8095	45.657	748.1554	68.1226	-214.669	-50.6702	747.7747	5.7114	33.5234	5.0174	13.992	-8.3742	40.6754	-0.0592	0.0182	-0.0073	-0.0462	0.0165	0.9585
37.8233	46.3538	743.8128	69.8763	-212.3144	-51.9809	742.2784	6.8075	58.9784	6.5433	24.6334	-10.5054	71.6759	-0.0592	0.0182	-0.0073	-0.0462	0.0165	0.9585
37.8371	46.2759	735.9235	71.1692	-208.9198	-53.0983	733.6933	6.9601	91.7494	7.6156	38.2833	-11.6346	111.6384	-0.0592	0.0182	-0.0073	-0.0462	0.0165	0.9585
37.8509	45.322	723.3037	71.7436	-204.174	-53.812	720.868	5.3639	129.7913	7.6763	54.0621	-10.7783	158.1031	-0.0592	0.0182	-0.0073	-0.0462	0.0165	0.9585
37.8646	43.4881	704.9911	71.3805	-197.8351	-53.9272	702.8384	1.7007	169.0747	6.2441	70.2751	-7.2784	206.1713	-0.0592	0.0182	-0.0073	-0.0462	0.0165	0.9585
37.8784	40.9339	680.6812	69.9536	-189.8625	-53.2982	679.2334	-3.5078	205.2319	3.3821	85.1159	-1.4923	250.5037	-0.0592	0.0182	-0.0073	-0.0462	0.0165	0.9585
37.8922	37.9836	651.012	67.5108	-180.4935	-51.8965	650.5554	-9.4156	236.1184	-0.46452	97.7115	5.6859	288.416	-0.0592	0.0182	-0.0073	-0.0462	0.0165	0.9585
37.906	35.079	617.3112	64.2334	-170.1595	-49.7655	617.9257	-15.4434	262.6768	-4.7979	108.4495	13.4482	321.0274	-0.0592	0.0182	-0.0073	-0.0462	0.0165	0.9585
37.9198	32.6262	580.9262	60.3645	-159.2833	-46.9962	582.4843	-21.2493	287.3572	-9.1643	118.3435	21.1485	351.3156	-0.0592	0.0182	-0.0073	-0.0462	0.0165	0.9585
37.9336	30.7977	542.6509	56.0484	-148.1116	-43.647	544.9106	-26.6078	312.5593	-13.2671	128.3838	28.3724	382.1808	-0.0592	0.0182	-0.0073	-0.0462	0.0165	0.9585
37.9474	29.5256	502.7079	51.3305	-136.709	-39.7532	505.4062	-31.3682	339.8477	-16.9908	139.2025	34.9376	415.4804	-0.0592	0.0182	-0.0073	-0.0462	0.0165	0.9585
37.9611	28.5684	460.9977	46.1978	-125.0322	-35.3536	463.913	-35.421	369.7928	-20.4349	151.0086	40.9239	451.8401	-0.0592	0.0182	-0.0073	-0.0462	0.0165	0.9585
37.9749	27.5628	417.3093	40.6842	-112.9927	-30.5704	420.2925	-38.7643	402.25	-23.935	163.7004	46.7055	491.0347	-0.0592	0.0182	-0.0073	-0.0462	0.0165	0.9585
37.9887	26.1441	371.5226	34.9194	-100.5126	-25.625	374.4748	-41.4337	436.6811	-27.8863	177.013	52.7365	532.347	-0.0592	0.0182	-0.0073	-0.0462	0.0165	0.9585
38.0025	23.9928	323.8571	29.1083	-87.5993	-20.8021	326.7238	-43.5068	472.4657	-32.6454	190.6605	59.4254	574.946	-0.0592	0.0182	-0.0073	-0.0462	0.0165	0.9585
38.0163	20.9271	275.0498	23.5152	-74.4058	-16.4083	277.8141	-45.1366	509.2099	-38.3324	204.4732	66.9343	618.2738	-0.0592	0.0182	-0.0073	-0.0462	0.0165	0.9585
38.0301	16.961	226.4413	18.3676	-61.2654	-12.6688	229.0991	-46.4472	546.8151	-44.8802	218.4257	75.1966	662.1209	-0.0592	0.0182	-0.0073	-0.0462	0.0165	0.9585
38.0439	12.337	179.8486	13.8509	-48.6567	-9.7014	182.3898	-47.4953	585.2492	-52.0023	232.5411	83.886	706.3703	-0.0592	0.0182	-0.0073	-0.0462	0.0165	0.9585
38.0576	7.5497	137.1912	10.0667	-37.1022	-7.4711	139.5663	-48.2792	624.1005	-59.3156	246.7051	92.5491	750.4872	-0.0592	0.0182	-0.0073	-0.0462	0.0165	0.9585
38.0714	3.1246	99.992	7.0526	-27.0219	-5.868	102.1408	-48.7819	662.3303	-66.3814	260.5605	100.6779	793.2463	-0.0592	0.0182	-0.0073	-0.0462	0.0165	0.9585
38.0852	-0.50184	69.0488	4.742	-18.6409	-4.7057	70.907	-48.9986	698.4128	-72.7962	273.5525	107.8173	832.9145	-0.0592	0.0182	-0.0073	-0.0462	0.0165	0.9585
38.099	-3.067	44.4762	3.0291	-11.9963	-3.8095	46.0106	-48.9304	730.6816	-78.234	285.066	113.6145	867.637	-0.0592	0.0182	-0.0073	-0.0462	0.0165	0.9585
38.1128	-4.4635	25.9174	1.7934	-6.9926	-3.0372	27.1314	-48.5921	757.6444	-82.502	294.5506	117.8756	895.7922	-0.0592	0.0182	-0.0073	-0.0462	0.0165	0.9585
38.1266	-4.7421	12.7305	0.93766	-3.4515	-2.3132	13.6427	-47.9907	778.2255	-85.515	301.6181	120.527	916.2491	-0.0592	0.0182	-0.0073	-0.0462	0.0165	0.9585
38.1404	-4.243	4.1373	0.39103	-1.1555	-1.6636	4.7883	-47.1251	791.9245	-87.2598	306.1025	121.5754	928.5327	-0.0592	0.0182	-0.0073	-0.0462	0.0165	0.9585
38.1541	-3.3768	-0.7874	0.091792	0.15047	-1.1439	-0.34028	-46.0038	798.8546	-87.796	308.0736	121.1104	932.8642	-0.0592	0.0182	-0.0073	-0.0462	0.0165	0.9585
38.1679	-2.4314	-3.0455	-0.033293	0.74039	-0.76441	-2.7399	-44.6287	799.6941	-87.2418	307.8169	119.2861	930.0894	-0.0592	0.0182	-0.0073	-0.0462	0.0165	0.9585
38.1817	-1.5729	-3.5441	-0.044991	0.86084	-0.51704	-3.3206	-42.989	795.5621	-85.7835	305.7798	116.326	921.5353	-0.0592	0.0182	-0.0073	-0.0462	0.0165	0.9585
38.1955	-0.87184	-3.0219	0.0062259	0.71136	-0.3754	-2.8427	-41.0786	787.8102	-83.6308	302.4901	112.4833	908.7674	-0.0592	0.0182	-0.0073	-0.0462	0.0165	0.9585
38.2093	-0.35929	-2.0136	0.085932	0.43423	-0.31496	-1.8415	-38.8916	777.8936	-81.0106	298.5099	108.0292	893.4398	-0.0592	0.0182	-0.0073	-0.0462	0.0165	0.9585
38.2231	-0.01955	-0.87335	0.16363	0.12153	-0.30047	-0.68405	-36.4224	767.3129	-78.1357	294.4154	103.2155	877.228	-0.0592	0.0182	-0.0073	-0.0462	0.0165	0.9585
38.2369	0.17152	0.188	0.22979	-0.17206	-0.30931	0.40689	-33.6621	757.4858	-75.2138	290.7496	98.2785	861.6914	-0.0592	0.0182	-0.0073	-0.0462	0.0165	0.9585
38.2506	0.2439	1.0752	0.27332	-0.42077	-0.32239	1.3265	-30.6042	749.6085	-72.4126	287.969	93.407	848.1301	-0.0592	0.0182	-0.0073	-0.0462	0.0165	0.9585
38.2644	0.23104	1.7464	0.29963	-0.60896	-0.33637	2.015	-27.2494	744.5358	-69.8765	286.3975	88.7605	837.4583	-0.0592	0.0182	-0.0073	-0.0462	0.0165	0.9585
38.2782	0.15403	2.194	0.31169	-0.73079	-0.35036	2.4661	-23.6053	742.7046	-67.6962	286.1942	84.4407	830.1245	-0.0592	0.0182	-0.0073	-0.0462	0.0165	0.9585
38.292	0.033973	2.409	0.31386	-0.78035	-0.3641	2.663	-19.6837	744.0979	-65.9195	287.3387	80.496	826.0859	-0.0592	0.0182	-0.0073	-0.0462	0.0165	0.9585
38.3058	-0.11153	2.3754	0.31305	-0.74966	-0.38527	2.5786	-15.51	748.2801	-64.5368	289.6457	76.9174	824.8614	-0.0592	0.0182	-0.0073	-0.0462	0.0165	0.9585
38.3196	-0.27338	2.0593	0.30693	-0.62798	-0.41662	2.1728	-11.127	754.4676	-63.5119	292.789	73.6705	825.6135	-0.0592	0.0182	-0.0073	-0.0462	0.0165	0.9585
38.3334	-0.44114	1.3936	0.30687	-0.39557	-0.46828	1.3721	-6.591	761.5932	-62.7856	296.3288	70.7026	827.2198	-0.0592	0.0182	-0.0073	-0.0462	0.0165	0.9585
38.3471	-0.60747	0.31835	0.30692	-0.034767	-0.5279	0.11709	-1.955	768.4197	-62.2983	299.7591	67.9573	828.392	-0.0592	0.0182	-0.0073	-0.0462	0.0165	0.9585
38.3609	-0.74469	-1.2	0.30879	0.46501	-0.58052	-1.6406	2.7413	773.7362	-61.9938	302.584	65.3766	827.8863	-0.0592	0.0182	-0.0073	-0.0462	0.0165	0.9585
38.3747	-0.80245	-3.1239	0.29598	1.0911	-0.58898	-3.877	7.4571	776.5775	-61.8289	304.4037	62.9198	824.7496	-0.0592	0.0182	-0.0073	-0.0462	0.0165	0.9585
38.3885	-0.71369	-5.2953	0.24845	1.7925	-0.5074	-6.4163	12.1433	776.3316	-61.7969	304.9593	60.5938	818.4309	-0.0592	0.0182	-0.0073	-0.0462	0.0165	0.9585
38.4023	-0.36727	-7.3585	0.13988	2.4548	-0.27031	-8.8432	16.7183	772.8259	-61.9125	304.1662	58.4486	808.8638	-0.0592	0.0182	-0.0073	-0.0462	0.0165	0.9585
38.4161	0.36189	-8.6829	-0.066552	2.8753	0.20602	-10.4054	21.0816	766.3735	-62.206	302.1311	56.5632	796.5073	-0.0592	0.0182	-0.0073	-0.0462	0.0165	0.9585
38.4299	1.6131	-8.3109	-0.40262	2.7436	1.0018	-9.9644	25.1227	757.6942	-62.6934	299.1211	55.0062	782.2485	-0.0592	0.0182	-0.0073	-0.0462	0.0165	0.9585
38.4436	3.5059	-4.8874	-0.89695	1.6207	2.1825	-5.9118	28.7069	747.6911	-63.3708	295.4754	53.8318	767.167	-0.0592	0.0182	-0.0073	-0.0462	0.0165	0.9585
38.4574	6.0859	3.308	-1.5507	-1.0481	3.7605	3.801	31.6798	737.1313	-64.1867	291.4822	53.0559	752.1994	-0.0592	0.0182	-0.0073	-0.0462	0.0165	0.9585
38.4712	9.2772	18.2099	-2.3363	-5.8858	5.6698	21.4776	33.8717	726.3608	-65.035	287.2626	52.6441	737.8407	-0.0592	0.0182	-0.0073	-0.0462	0.0165	0.9585
38.485	12.7581	41.6706	-3.1571	-13.4855	7.6888	49.3289	35.1177	715.0959	-65.742	282.6939	52.491	723.9146	-0.0592	0.0182	-0.0073	-0.0462	0.0165	0.9585
